<?xml version="1.0" encoding="utf-8"?>
<!-- Generator: Adobe Illustrator 24.0.0, SVG Export Plug-In . SVG Version: 6.00 Build 0)  -->
<svg version="1.0" id="Layer_1" xmlns="http://www.w3.org/2000/svg" xmlns:xlink="http://www.w3.org/1999/xlink" x="0px" y="0px"
	 viewBox="0 0 150 48.7" style="enable-background:new 0 0 150 48.7;" xml:space="preserve">
<style type="text/css">
	.st0{fill:#050505;}
</style>
<title>Asset 1</title>
<g id="Layer_2_1_">
	<g id="Layer_1-2">
		<path class="st0" d="M45,25.3c2.2,0,4.4,0.8,6.1,2.3c1.1,1,2.7,0.9,3.7-0.1c1-1.1,0.9-2.7-0.2-3.7C52,21.3,48.6,20,45,20
			c-7.9,0-14.3,6.4-14.3,14.3c0,7.9,6.4,14.3,14.3,14.3c3.5,0,6.9-1.3,9.5-3.7c1.1-1,1.2-2.6,0.2-3.7c-1-1.1-2.6-1.2-3.7-0.2
			c-1.6,1.5-3.8,2.3-6,2.3c-5,0-9.1-4.1-9.1-9.1S40,25.3,45,25.3z"/>
		<path class="st0" d="M23.7,21.1c-1.5,0-2.7,1.2-2.7,2.6c0,0,0,0,0,0v11.8c0,4.4-3.5,7.9-7.9,7.9c-4.4,0-7.9-3.5-7.9-7.9V23.8
			c0-1.4-1.2-2.6-2.6-2.6c-1.4,0-2.6,1.2-2.6,2.6v11.7c0,7.3,5.9,13.2,13.2,13.2c2.9,0,5.8-1,8.1-2.8c0.6,1.3,2.1,2,3.4,1.4
			c1-0.4,1.6-1.4,1.6-2.4V23.8C26.3,22.3,25.1,21.1,23.7,21.1z"/>
		<path class="st0" d="M78.1,21.1c-4.5-2.1-9.7-1.4-13.6,1.6c-0.5-1.3-2.1-2-3.4-1.5c-1,0.4-1.7,1.4-1.6,2.5v21.1
			c0,1.5,1.2,2.6,2.6,2.6s2.6-1.2,2.6-2.6V33.2c0-4.4,3.6-7.9,7.9-7.9c1.1,0,2.2,0.2,3.3,0.7c1.3,0.6,2.9,0,3.5-1.3c0,0,0,0,0,0
			c0.6-1.3,0.1-2.8-1.2-3.4C78.2,21.2,78.1,21.2,78.1,21.1z"/>
		<path class="st0" d="M94.6,20c-7.9,0-14.3,6.4-14.3,14.3s6.4,14.3,14.3,14.3c3.3,0,6.6-1.2,9.1-3.3c0.3,1.4,1.7,2.4,3.1,2.1
			c1.2-0.2,2.1-1.3,2.1-2.6V34.3C108.9,26.4,102.5,20,94.6,20z M94.6,43.5c-5,0-9.1-4.1-9.1-9.1c0-5,4.1-9.1,9.1-9.1
			c5,0,9.1,4.1,9.1,9.1C103.7,39.4,99.6,43.4,94.6,43.5L94.6,43.5z"/>
		<path class="st0" d="M147.4,43.5c-3.4,0-6.1-2.8-6.1-6.2V20.5h5c1.5,0,2.6-1.2,2.6-2.6c0-1.5-1.2-2.6-2.6-2.6h-5V4.1
			c0-1.5-1.2-2.6-2.6-2.6c-1.4,0-2.6,1.2-2.6,2.6v11.1h-15.5v-3.8c0-3.4,2.8-6.1,6.2-6.2c1.4,0,2.6-1.2,2.6-2.6
			c0-1.4-1.2-2.6-2.6-2.6c-6.3,0-11.4,5.1-11.4,11.4c0,0,0,0,0,0v3.8h-3.2c-1.5,0-2.6,1.2-2.6,2.6s1.2,2.6,2.6,2.6c0,0,0,0,0,0h3.2
			v24.4c0,1.5,1.2,2.6,2.6,2.6c1.5,0,2.6-1.2,2.6-2.6V20.5H136v16.7c0,6.3,5.1,11.4,11.4,11.4c0,0,0,0,0,0c1.4,0,2.6-1.2,2.6-2.6
			C150,44.6,148.8,43.5,147.4,43.5C147.4,43.5,147.4,43.5,147.4,43.5z"/>
	</g>
</g>
</svg>
